<svg width="1181" height="63" viewBox="0 0 1181 63" fill="none" xmlns="http://www.w3.org/2000/svg">
<path d="M118.75 25C120.443 25 121.908 24.4141 123.145 23.2422C124.382 22.0052 125 20.5078 125 18.75C125 17.0573 124.382 15.5924 123.145 14.3555C121.908 13.1185 120.443 12.5 118.75 12.5H18.75C16.9922 12.5 15.4948 13.1185 14.2578 14.3555C13.0859 15.5924 12.5 17.0573 12.5 18.75C12.5 20.5078 13.0859 22.0052 14.2578 23.2422C15.4948 24.4141 16.9922 25 18.75 25H118.75ZM0 62.5V12.5C0 9.04948 1.20443 6.11979 3.61328 3.71094C6.02214 1.23698 8.98438 0 12.5 0H125C128.451 0 131.38 1.23698 133.789 3.71094C136.263 6.11979 137.5 9.04948 137.5 12.5V25C137.5 28.5156 136.263 31.4779 133.789 33.8867C131.38 36.2956 128.451 37.5 125 37.5H12.5V62.5H0ZM161.5 62.5C157.984 62.5 155.022 61.2956 152.613 58.8867C150.204 56.4779 149 53.5156 149 50V12.5C149 9.04948 150.204 6.11979 152.613 3.71094C155.022 1.23698 157.984 0 161.5 0H249C252.451 0 255.38 1.23698 257.789 3.71094C260.263 6.11979 261.5 9.04948 261.5 12.5V43.75C261.5 45.5078 262.086 47.0052 263.258 48.2422C264.495 49.4141 265.992 50 267.75 50H286.5V62.5H261.5C257.984 62.5 255.022 61.2956 252.613 58.8867C250.204 56.4779 249 53.5156 249 50V18.75C249 17.0573 248.382 15.5924 247.145 14.3555C245.908 13.1185 244.443 12.5 242.75 12.5H167.75C165.992 12.5 164.495 13.1185 163.258 14.3555C162.086 15.5924 161.5 17.0573 161.5 18.75V43.75C161.5 45.5078 162.086 47.0052 163.258 48.2422C164.495 49.4141 165.992 50 167.75 50H249C249 53.5156 247.763 56.4779 245.289 58.8867C242.88 61.2956 239.951 62.5 236.5 62.5H161.5ZM298 62.5V12.5C298 9.04948 299.204 6.11979 301.613 3.71094C304.022 1.23698 306.984 0 310.5 0H423C426.451 0 429.38 1.23698 431.789 3.71094C434.263 6.11979 435.5 9.04948 435.5 12.5V62.5H423V18.75C423 17.0573 422.382 15.5924 421.145 14.3555C419.908 13.1185 418.443 12.5 416.75 12.5H316.75C314.992 12.5 313.495 13.1185 312.258 14.3555C311.086 15.5924 310.5 17.0573 310.5 18.75V62.5H298ZM565.75 50C567.443 50 568.908 49.4141 570.145 48.2422C571.382 47.0052 572 45.5078 572 43.75V18.75C572 17.0573 571.382 15.5924 570.145 14.3555C568.908 13.1185 567.443 12.5 565.75 12.5H465.75C463.992 12.5 462.495 13.1185 461.258 14.3555C460.086 15.5924 459.5 17.0573 459.5 18.75V43.75C459.5 45.5078 460.086 47.0052 461.258 48.2422C462.495 49.4141 463.992 50 465.75 50H565.75ZM459.5 62.5C455.984 62.5 453.022 61.2956 450.613 58.8867C448.204 56.4779 447 53.5156 447 50V12.5C447 9.04948 448.204 6.11979 450.613 3.71094C453.022 1.23698 455.984 0 459.5 0H572C575.451 0 578.38 1.23698 580.789 3.71094C583.263 6.11979 584.5 9.04948 584.5 12.5V50C584.5 53.5156 583.263 56.4779 580.789 58.8867C578.38 61.2956 575.451 62.5 572 62.5H459.5ZM596 62.5V12.5C596 9.04948 597.204 6.11979 599.613 3.71094C602.022 1.23698 604.984 0 608.5 0H733.5V12.5H614.75C612.992 12.5 611.495 13.1185 610.258 14.3555C609.086 15.5924 608.5 17.0573 608.5 18.75V62.5H596ZM757.5 62.5C753.984 62.5 751.022 61.2956 748.613 58.8867C746.204 56.4779 745 53.5156 745 50V12.5C745 9.04948 746.204 6.11979 748.613 3.71094C751.022 1.23698 753.984 0 757.5 0H845C848.451 0 851.38 1.23698 853.789 3.71094C856.263 6.11979 857.5 9.04948 857.5 12.5V43.75C857.5 45.5078 858.086 47.0052 859.258 48.2422C860.495 49.4141 861.992 50 863.75 50H882.5V62.5H857.5C853.984 62.5 851.022 61.2956 848.613 58.8867C846.204 56.4779 845 53.5156 845 50V18.75C845 17.0573 844.382 15.5924 843.145 14.3555C841.908 13.1185 840.443 12.5 838.75 12.5H763.75C761.992 12.5 760.495 13.1185 759.258 14.3555C758.086 15.5924 757.5 17.0573 757.5 18.75V43.75C757.5 45.5078 758.086 47.0052 759.258 48.2422C760.495 49.4141 761.992 50 763.75 50H845C845 53.5156 843.763 56.4779 841.289 58.8867C838.88 61.2956 835.951 62.5 832.5 62.5H757.5ZM894 62.5V12.5C894 9.04948 895.204 6.11979 897.613 3.71094C900.022 1.23698 902.984 0 906.5 0H1019C1022.45 0 1025.38 1.23698 1027.79 3.71094C1030.26 6.11979 1031.5 9.04948 1031.5 12.5V62.5H1019V18.75C1019 17.0573 1018.38 15.5924 1017.14 14.3555C1015.91 13.1185 1014.44 12.5 1012.75 12.5H975.25C973.492 12.5 971.995 13.1185 970.758 14.3555C969.586 15.5924 969 17.0573 969 18.75V62.5H956.5V18.75C956.5 17.0573 955.882 15.5924 954.645 14.3555C953.408 13.1185 951.943 12.5 950.25 12.5H912.75C910.992 12.5 909.495 13.1185 908.258 14.3555C907.086 15.5924 906.5 17.0573 906.5 18.75V62.5H894ZM1055.5 62.5C1051.98 62.5 1049.02 61.2956 1046.61 58.8867C1044.2 56.4779 1043 53.5156 1043 50V12.5C1043 9.04948 1044.2 6.11979 1046.61 3.71094C1049.02 1.23698 1051.98 0 1055.5 0H1143C1146.45 0 1149.38 1.23698 1151.79 3.71094C1154.26 6.11979 1155.5 9.04948 1155.5 12.5V43.75C1155.5 45.5078 1156.09 47.0052 1157.26 48.2422C1158.49 49.4141 1159.99 50 1161.75 50H1180.5V62.5H1155.5C1151.98 62.5 1149.02 61.2956 1146.61 58.8867C1144.2 56.4779 1143 53.5156 1143 50V18.75C1143 17.0573 1142.38 15.5924 1141.14 14.3555C1139.91 13.1185 1138.44 12.5 1136.75 12.5H1061.75C1059.99 12.5 1058.49 13.1185 1057.26 14.3555C1056.09 15.5924 1055.5 17.0573 1055.5 18.75V43.75C1055.5 45.5078 1056.09 47.0052 1057.26 48.2422C1058.49 49.4141 1059.99 50 1061.75 50H1143C1143 53.5156 1141.76 56.4779 1139.29 58.8867C1136.88 61.2956 1133.95 62.5 1130.5 62.5H1055.5Z" fill="#E4E4E4"/>
</svg>
